# xmcd CD database file
#
# Track frame offsets:
#	150
#	1511
#	17019
#	49677
#	50308
#	78852
#	88118
#	112574
#	121422
#	142691
#	143012
#	144318
#	147410
#	169876
#	179671
#	200338
#	222726
#	242481
#	260345
#	276181
#	300807
#	323744
#
# Disc length: 4664 seconds
#
# Revision: 7
# Processed by: cddbd v1.5.1PL0 Copyright (c) Steve Scherf et al.
# Submitted via: CDex 1.51
#
DISCID=21123616
DTITLE=Deliverance - Classic Archive
DYEAR=1900
DGENRE=New Age
TTITLE0=Intro
TTITLE1=Prophet of Idiocy
TTITLE2=Pseudo Intellectual
TTITLE3=Cheeseburger Maker Du
TTITLE4=What a Joke
TTITLE5=Chipped Beef
TTITLE6=After Forever
TTITLE7=It's the Best
TTITLE8=A Product of Society
TTITLE9=Happy Star
TTITLE10=J.P.D.
TTITLE11=Pray
TTITLE12=Silent Night
TTITLE13=J.I.G.
TTITLE14=Stay of Execution
TTITLE15=Windows of the Soul
TTITLE16=Words to the...
TTITLE17=From Once Was
TTITLE18=Self-Monger
TTITLE19=Horrendous Disc
TTITLE20=Lord of Dreams
TTITLE21=Ramming Speed
EXTD=
EXTT0=
EXTT1=
EXTT2=
EXTT3=
EXTT4=
EXTT5=
EXTT6=
EXTT7=
EXTT8=
EXTT9=
EXTT10=
EXTT11=
EXTT12=
EXTT13=
EXTT14=
EXTT15=
EXTT16=
EXTT17=
EXTT18=
EXTT19=
EXTT20=
EXTT21=
PLAYORDER=
